<svg version="1" xmlns="http://www.w3.org/2000/svg" width="666.667" height="666.667" viewBox="0 0 500.000000 500.000000"><path d="M114.5.7C94 2.6 73 10.3 55 22.3 45.4 28.7 28.7 45.4 22.3 55c-9.7 14.5-16.6 30.9-20 47.7C.6 110.9.5 120.9.5 250c0 153.7-.4 144.9 6.7 164.8 6.7 19.1 15.6 33.2 30.2 47.8 14.6 14.6 28.7 23.5 47.8 30.2 19.9 7.1 11.1 6.7 164.8 6.7 153.7 0 144.9.4 164.8-6.7 19.1-6.7 33.2-15.6 47.8-30.2 14.6-14.6 23.5-28.7 30.2-47.8 7.1-19.9 6.7-11.1 6.7-164.8 0-153.7.4-144.9-6.7-164.8-6.7-19.1-15.6-33.2-30.2-47.8-18-18-37.4-28.7-63.1-34.7C390.6.6 389 .6 254.5.4c-74.8 0-137.8.1-140 .3zm144.6 47.9c38.8 4.1 68.2 14.5 97.4 34.2 12.3 8.3 29.8 22.8 29.3 24.3-.2.5-12.9 13.4-28.2 28.9l-27.9 28-5.6-5.3C303 138.8 275.5 128 245.5 128c-31.6 0-57.5 10.5-80.4 32.4-18.8 18-29.8 36.6-35.7 60.1-3.5 13.6-4.3 36.6-2 51 8.4 50.6 49 92.1 98.1 100 35 5.7 69.8-4.2 97.7-27.8 9.9-8.4 25.8-29.5 29.4-39 .6-1.6-2.5-1.7-55.5-1.7H241v-77h201.8l.7 9.7c.8 10 .1 28-1.6 41.8-7.5 61.4-42.2 115.3-95.2 148.2-44.3 27.4-101.9 35.3-154.5 21.3-33.3-8.9-61-25.7-87.7-53.1-13.1-13.4-18-19.5-27.3-33.6C44.6 310.6 37.1 239.9 58 180.6c19.4-54.8 67.8-103.8 121-122.4 11.8-4.1 23.8-7 38.2-9.1 15.6-2.4 24-2.5 41.9-.5z"/></svg>