<?xml version="1.0" encoding="utf-8"?>
<!-- Generator: Adobe Illustrator 23.0.4, SVG Export Plug-In . SVG Version: 6.00 Build 0)  -->
<svg version="1.1" id="Layer_1" xmlns="http://www.w3.org/2000/svg" xmlns:xlink="http://www.w3.org/1999/xlink" x="0px" y="0px"
	 viewBox="0 0 566.93 566.93" style="enable-background:new 0 0 566.93 566.93;" xml:space="preserve">
<g>
	<path d="M25.5,346.58c1.74-0.29,3.42-0.62,5.27-0.92c2.32-0.38,5.21-0.59,4.83-2.9c-0.1-0.58-0.06-1.02-0.15-1.54l-0.42-2.58
		c-0.17-1-0.73-1.77-1.73-1.61c-0.9,0.15-1.54,0.52-2.59,0.7c-0.9,0.15-0.86,1.33-0.73,2.12c0.17,1.05-0.37,1.03-3.54,1.55
		c-0.32,0.05-2.07,0.23-2.34,0.28c-1.49,0.19-3.08,0.4-4.48-0.88c-0.7-0.64-0.72-1.72-0.85-2.56c-0.17-1.05,1.23-2.42,2.9-2.8
		c3.97-0.87,8.1-1.17,12.08-1.99c2.83-0.57,4.6-0.7,4.91-0.75c1.06-0.17,2.44-0.67,2.91-0.75c2.11-0.35,5.2-0.32,5.61,2.15
		c0.28,1.68-1.11,3.8-2.85,4.09l-3.06,0.5c-1.74,0.29-1.31,2.21-1.25,2.58c0.45,2.73,1.67,2.26,4.05,1.87
		c1.06-0.17,2.58-0.8,2.98-0.98c1.93-0.8,4.52-2.15,4.8-5.06c0.09-1.1,0.24-2.85,0.13-3.48c-0.19-1.16-0.59-2.28-1.18-3.21
		c-3.12-4.78-7.92-3.99-11.71-3.36c-1.53,0.25-2.88,0.58-4.83,0.96c-2.26,0.43-4.47,0.84-6.22,1.02c-2.35,0.23-4.66,0.66-7.12,1.17
		c-2,0.38-4.54,1.39-5.75,3.27c-0.48,0.73-0.55,1.6-0.78,2.18c-0.62,1.51-0.52,2.41-0.21,4.3c0.48,2.89,2.48,6.18,5.7,6.67
		C22.16,347.02,25.08,346.65,25.5,346.58z"/>
	<path d="M33.83,370.69c2.94-0.78,6.84-1.93,8.96-2.5c1.55-0.41,2.23-0.54,4.15-1.05c2.17-0.58,3.32-1.05,5.33-2.19
		c1.58-0.92,2.19-1.13,2.59-2.51c0.2-0.71,0.34-1.03,1-1.42c1.41-0.93,1.05-4.36,0.75-5.49c-0.8-2.99-2.46-4.86-6.02-5.56
		c-3.15-0.6-5.38-0.06-8.18,0.85c-0.71,0.24-1.47,0.5-2.19,0.69c-2.22,0.59-5.37,1.21-6.82,1.6c-1.39,0.37-2.1,0.84-2.72,1
		c-0.62,0.17-1.15,0.25-1.87,0.44c-1.81,0.48-3.25,0.87-4.88,1.63c-3.39,1.62-5.39,5.08-4.3,9.19c0.41,1.54,1.78,4.6,3.8,5.55
		C26.79,372.51,30.68,371.53,33.83,370.69z M24.77,365.33c-0.54-2.01,0.06-3.71,1.85-4.46c1.89-0.78,3.09-0.66,4.59-1.06
		c0.57-0.15,1.15-0.47,1.71-0.62c2.22-0.59,3.99-1.23,5.59-1.43c2.66-0.38,6.36-1.86,9.52-2.48c1.47-0.28,3.03,0.35,3.45,1.95
		c0.67,2.52-1.86,3.8-3.67,4.29c-1.34,0.36-3.05,0.59-4.34,0.94c-1.14,0.3-6.71,2.01-7.73,2.33c-0.76,0.26-1.35,0.75-1.92,0.9
		c-0.62,0.17-1.3-0.1-2.01,0.15c-1.26,0.45-2.63,0.7-3.95,0.94C26.95,366.9,24.99,366.15,24.77,365.33z"/>
	<path d="M33.39,391.19c-0.44-1.03-0.71-2.24-1.25-3.4c-0.31-0.68,0.46-1.53,1.16-1.79c2.06-0.76,3.82-1.06,6.06-2.11
		c2.03-0.97,4.18-1.65,6.43-2.48c1.4-0.51,5.48-1.67,7.61-2.68c1.65-0.78,4.04-1.26,6.59-2.36c1.57-0.69,2.46-0.9,1.43-3.7
		c-0.37-1-0.93-2.38-2.84-1.68c-3.01,1.11-5.19,1.85-5.19,1.85c-1.91,0.7-1.76,1.1-2.56,1.4c-1.64,0.66-2.15,0.51-3.25,0.91
		c-3.26,1.2-6.65,2.05-9.82,3.49c-2.1,0.94-3.73,1.31-5.64,2.01c-0.55,0.2-2.46,0.9-2.96,1.09c-0.3,0.11-0.7,0.26-1,0.54
		c-0.38,0.37-1.07,0.34-1.32,0.43c-0.95,0.35-1.17,1.17-0.91,1.87c0.7,1.9,1.19,3.71,1.82,5.41c0.68,1.85,1.47,3.38,2.32,6.01
		c0.23,0.77,0.89,0.87,2.54,0.26C34.54,395.54,35.1,395.22,33.39,391.19z"/>
	<path d="M53.09,412.93c1.5-0.7,3.06-1.66,4.75-2.45c2.62-1.22,4.94-2.07,7.16-3.11c2.37-1.11,3.78-2.64,4.84-3.79
		c2.32-2.49,1.95-5.44,0.64-8.24c-1.28-2.75-1.56-3.86-2.46-5.79c-0.61-1.3-1.71-2.14-3.35-1.61c-1.38,0.47-2.84,1.38-5.13,2.28
		c-1.74,0.69-3.01,1.52-4.55,2.12c-0.94,0.38-3.54,1.77-4.12,2.04c-4.41,2.18-7.36,3.31-10.59,5c-0.61,0.34-1.29,0.78-1.68,0.96
		c-1.07,0.5-2.25,0.87-3.31,1.37c-2.42,1.13-1.78,2.77-1.26,3.88c0.97,2.08,1.41,2.64,1.74,3.36c1.28,2.75,2.32,5.74,5.21,6.62
		c2.77,0.88,4.93,0.46,7.7-0.83C52.03,413.19,52.61,413.15,53.09,412.93z M40.91,408.32c-0.9-1.93-1.15-2.46,0.04-3.2
		c0.68-0.44,4.02-1.76,4.79-2.12c3.15-1.47,6.44-3.65,9.99-4.89c1.06-0.38,1.96-0.97,3-1.4c1.45-0.56,3.1-1.45,4.51-2.1
		c1.02-0.47,1.73-0.22,2.09,0.56c0.32,0.68,0.43,1.56,0.77,2.29c0.61,1.3,0.49,2.95-1.16,3.83c-0.8,0.43-4.49,2.39-5.26,2.75
		c-1.65,0.77-3.15,1.59-4.8,2.36c-1.65,0.77-2.61,0.98-3.82,1.55c-1.84,0.86-3.64,1.81-5.48,2.67
		C43.79,411.44,41.7,410.01,40.91,408.32z"/>
	<path d="M52.99,431.5c-0.78-1.34-1.72-2.52-0.16-3.67c0.44-0.31,1.56-1.15,3.86-2.19c1.02-0.47,2.15-1.19,3.54-2
		c1.2-0.7,1.71,0.17,3.19,2.71c1.64,2.81,1.91,2.96,3.2,2.2c0.51-0.3,1.25-0.3,1.68-0.61c0.82-0.6,0.92-1.28,0.41-2.15l-2.12-3.64
		c-0.59-1.01-0.88-1.83,0.41-2.58l1.2-0.7c1.39-0.81,2.49-1.57,4.01-2.46c2.59-1.51,3.12-1.33,4.39,0.84l2.55,4.37
		c0.56,0.97,1.23,2,2.8,1.08c1.75-1.02,2.36-1.68,1.68-3.26c-0.9-2.07-1.99-3.41-3.11-5.34c-0.19-0.32-1.18-2.34-1.45-2.8
		c-1.37-2.35-2.64-3.46-4.53-2.36c-1.25,0.73-3.96,2.12-5.21,2.85c-1.25,0.73-2.2,1.53-3.59,2.34c-1.66,0.97-5.28,2.09-10.87,6.09
		c-2.79,2-5.79,3.13-8.15,4.81c-1.35,0.97-1.96,1.94-1.24,3.19c0.16,0.28,0.66,1.03,0.82,1.31c0.62,1.06,0.95,1.73,1.49,2.77
		c1.11,2.01,2.1,4.14,3.49,5.99c1.3,1.71,2.44,0.8,3.04,0.45c1.43-0.83,2.06-1.45,0.74-3.39C54.57,434.53,54.17,433.53,52.99,431.5z
		"/>
	<path d="M90.29,443.41c0.64-0.39,1.39-1.18,2.04-1.64c1.05-0.74,2.19-1.16,3.19-1.87c1.09-0.77,0.96-1.79,0.39-2.5
		c-0.41-0.49-0.4-1.02-1.14-1.61c-0.61-0.48-1.32-1.03-2.88,0.28c-1.83,1.49-3.23,2.09-5.79,4.04c-1.71,1.28-3.74,2.58-6.34,4.36
		c-0.22,0.15-0.57,0.21-0.82-0.14c-0.52-0.74,0.86-1.65,1.53-2.46c0.59-0.74,1.08-1.81,1.68-2.43c0.88-0.88,1.75-2.15,3.31-3.92
		c1.28-1.43,2.32-3.01,3.67-4.43c0.89-0.96,0.91-1.95,0.42-2.65c-0.37-0.52-1.55-2.1-1.83-2.49c-0.46-0.65-1.61-1.34-2.83-0.48
		c-1.13,0.8-3.18,1.99-4.88,3.2c-0.57,0.4-3.01,1.94-3.49,2.28c-0.87,0.62-1.76,1.12-2.63,1.74c-2.44,1.73-4.37,3.36-6.46,4.84
		c-0.87,0.62-1.72,1.09-2.76,1.83c-4.1,2.9-6.38,4.59-7.44,5.4c-0.97,0.75-0.91,1.49-0.14,2.58c0.49,0.7,1.03,0.71,1.44,1.2
		c0.38,0.45,1.07,0.49,1.76-0.01c2.18-1.55,4.61-3.01,7.36-4.96c0.83-0.59,1.66-0.98,2.45-1.54c1.83-1.3,2.88-2.5,5.5-4.35
		c0.57-0.4,1.46-0.71,1.68-0.41c0.28,0.39-0.08,0.91-0.27,1.1c-1.04,1.13-1.6,1.53-2.86,3.27c-0.5,0.68-1.02,1.24-1.55,1.88
		c-1.15,1.34-2.06,2.83-3.29,4.23c-2.26,2.91-3.62,3.67-5.13,6.25c-1.24,2.32,0,3.33,1.14,4.94c0.71,1,1.67,0.97,2.54,0.35
		c0.44-0.31,1.62-1.41,5.54-3.92c3.14-2.03,6.32-4.94,10.64-7.54C85.94,446.69,86.81,445.62,90.29,443.41z"/>
	<path d="M103.26,481.06c1.2-1.14,2.37-2.55,3.72-3.84c2.09-1.99,4.01-3.54,5.79-5.23c1.89-1.81,2.73-3.71,3.37-5.13
		c1.4-3.1,0.11-5.77-2.03-8.01c-2.1-2.2-2.71-3.16-4.19-4.7c-0.99-1.04-2.3-1.48-3.69-0.46c-1.15,0.88-2.24,2.22-4.13,3.8
		c-1.43,1.21-2.36,2.4-3.63,3.47c-0.77,0.66-2.79,2.81-3.25,3.25c-3.48,3.47-5.91,5.49-8.43,8.12c-0.47,0.52-0.97,1.15-1.28,1.44
		c-0.85,0.81-1.85,1.54-2.7,2.36c-1.93,1.84-0.8,3.19,0.05,4.08c1.58,1.66,2.18,2.05,2.73,2.63c2.1,2.2,4.04,4.69,7.06,4.61
		c2.91-0.05,4.82-1.14,7.02-3.24C102.34,481.65,102.87,481.43,103.26,481.06z M90.25,480.59c-1.47-1.54-1.88-1.96-0.98-3.04
		c0.51-0.63,3.24-2.95,3.86-3.54c2.51-2.4,4.93-5.52,7.89-7.83c0.89-0.7,1.55-1.55,2.4-2.29c1.19-0.99,2.47-2.36,3.6-3.43
		c0.81-0.77,1.57-0.76,2.15-0.14c0.51,0.54,0.91,1.34,1.46,1.92c0.99,1.04,1.41,2.64,0.13,4c-0.62,0.67-3.49,3.7-4.11,4.29
		c-1.31,1.26-2.48,2.51-3.79,3.77c-1.31,1.25-2.16,1.76-3.12,2.69c-1.47,1.4-2.86,2.88-4.33,4.28
		C93.98,482.63,91.54,481.94,90.25,480.59z"/>
	<path d="M131.8,478.69c1.47-1.7,1.03-2.57-2.47-5.61c-3.3-2.86-3.53-0.65-7.24,2.42c-3.75,3.11-7.46,5.84-13.08,10.94
		c-1.03,0.95-2.08,1.59-3.17,2.84c-1.09,1.25-2.97,1.88-4.34,3.45c-1.05,1.21-1.4,1.05-2.28,2.06c-0.6,0.69-0.38,1.65,0.43,2.35
		c1.37,1.19,1.75,1.24,2.67,0.83c1.65-0.69,3.96-4.49,5.73-2.95c1.57,1.36,5.16,3.41,3.84,5.74c-0.98,1.7-3.4,3.84-2.03,5.03
		c2.86,2.48,3.33,2.18,4.21,1.17c0.49-0.56,2.57-3.86,3.05-4.57c2.36-3.61,4.42-7.7,6.3-10.45
		C126.79,487.08,131.17,479.42,131.8,478.69z M120.26,487.36c-1.54,2.34-2.64,4.5-4.32,6.44c-1.23,1.41-2.7-0.22-3.99-1.34
		c-0.73-0.63-0.74-1.42-0.08-2.19c1.19-1.37,2.65-2.16,3.94-3.65c0.31-0.36,0.48-0.64,0.69-0.88c0.6-0.61,0.91-0.56,1.34-0.89
		c1.58-1.17,2.73-2.09,4.01-3.17c0.36-0.33,0.83-0.55,1.19-0.24C123.95,482.21,121.49,485.45,120.26,487.36z"/>
	<path d="M150.32,494.64c0.51-0.42,0.97-0.88,1.57-1.24c1.25-0.81,0.89-1.67,0.54-1.92c-0.77-0.57-1.23-1.03-1.92-1.53
		c-1.55-1.13-2.08,0.4-3.11,1.1c-0.41,0.29-0.99,0.73-1.44,1.07c-1.99,1.46-3,2.57-4.57,3.81c-1.26,1-2.23,1.61-3.29,2.43
		c-0.28,0.19-0.83,0.59-1.21,0.3c-0.52-0.38-0.32-1.36,0.02-2.1c1.23-2.68,2.15-5.38,3.04-8.23c0.44-1.33,0.93-2.36,1.41-3.74
		c0.22-0.57,0.06-1.35-0.56-1.67c-0.62-0.32-1-1.07-1.56-1.47c-1.55-1.13-2.27,0.39-2.73,1.58c-1.53,3.91-2.12,6.06-2.81,8.27
		c-0.67,2.09-1.4,4.27-2.27,6.35c-0.99,2.26-1.19,4.89-3.05,7.43c-0.28,0.39-1.77,2.15-2.95,4.13c-0.58,0.97-1.21,1.83-1.95,2.68
		c-0.62,0.67-1.03,1.23-1.35,1.85c-0.42,0.75,0.03,1.68,0.85,2.27c1.98,1.45,2.61,1.84,4.02,0.09c0.67-0.83,1.39-1.63,1.89-2.59
		s1.76-2.22,2.7-3.52c1.32-1.81,2.17-2.78,3.47-3.75c3.59-2.74,7.38-5.13,10.74-8.11C147.33,496.76,148.87,495.9,150.32,494.64z"/>
	<path d="M162.17,496.73c-1.64-1-2.64-1.1-3.98-1.04c-1.23,0.07-2.14-0.17-3.73,0.8c-1.92,1.21-3.33,3.23-4.39,4.96
		c-0.94,1.55-1.92,5.52-1.13,8.63c0.35,1.27,0.76,2.34,0.89,3.67c0.08,0.8,0.78,2.1,0.94,3.07c0.47,2.41,0.39,4.8-1.06,7.18
		c-1.11,1.83-2.75,2.58-4.62,1.45c-1.73-1.05-2.01-3.16-0.87-5.34c0.34-0.67,0.8-1.32,1.19-1.97c0.8-1.32-0.42-2.07-0.88-2.35
		c-1.41-0.86-2.15-1.18-3.65,1.29c-0.31,0.5-0.43,1.12-0.73,1.62c-0.36,0.59-0.76,1.04-0.99,1.52c-0.83,1.68-0.69,4.02,0.18,5.86
		c0.18,0.42,1.4,2.41,2.54,3.11l1.5,0.91c4.87,2.96,9.2-0.48,11.37-4.04c0.31-0.5,0.88-1.34,0.88-1.97
		c0.01-0.74,0.27-2.71,0.55-3.17c1.03-1.69-0.06-3.6-0.31-4.82c-0.22-1.07-0.08-2.43-0.28-3.23c-0.72-3.44-2.59-5.89-0.1-10
		c0.83-1.37,1.22-1.39,1.85-1.81c0.74-0.49,1.36-0.8,2.41-0.16c2.78,1.69,2.18,3.7,0.82,5.94c-0.92,1.51,0.35,2.4,0.93,2.57
		c0.12,0.01,1.19,0.41,1.7,0.59c1.02,0.37,1.36,0.02,1.83-0.76c0.69-1.14,0.9-2.4,1.23-3.57c0.22-0.87,0.52-1.68,0.53-2.62
		C166.86,500.39,164.13,497.92,162.17,496.73z"/>
	<path d="M178.97,537.45c0.23-0.13,1.91-0.93,2.19-1.04c0.6-0.32,1.36-0.87,2-1.29c0.48-0.32,1.72-0.49,2.02-0.65
		c4.43-2.23,9-4.63,10.9-9.05c0.74-1.72,1.27-3.35,1.46-5.31c0.21-1.83-0.49-3.99-1.83-5.32c-0.96-0.99-1.95-1.94-3.32-2.53
		c-1.96-0.84-2.07-0.31-3.62-0.62c-2.71-0.58-5.45,0.69-7.08,3.25c-0.92,1.47-1.96,3.23-2.39,4.91c-0.33,1.31,1.33,1.91,2.31,2.33
		c0.88,0.38,1.95,0.6,2.47-0.63c0.86-2.01,1.33-3.38,2.4-3.97c1-0.56,1.43-1.31,3.34-0.49c2.84,1.22,1.77,4.25,0.87,6.36
		c-0.76,1.77-1.92,3.13-3.39,4.54c-0.59,0.56-1.4,0.97-1.68,1.08c-1.38,0.51-2.55,0.94-3.81,1.85c-1.26,0.91-2.95,1.47-4.14,1.95
		c-2.59,1.04-5.44,3.36-6.58,6.02c-0.27,0.64-0.5,1.3-0.75,1.89c-0.19,0.44-0.45,0.91-0.58,1.21c-0.72,1.67,0.9,2.36,1.94,2.64
		c1.99,0.5,3.46,1.54,5.07,2.23c0.93,0.4,1.99,0.91,3.67,1.46c0.97,0.3,1.72,0.85,2.6,1.23c0.73,0.31,1.62,0.4,2.03-0.41
		c0.36-0.72,0.53-1.52,0.85-2.25c0.19-0.44,0.12-1.23-0.37-1.44c-0.39-0.17-0.9-0.33-1.29-0.5c-0.69-0.29-1.58-0.91-2.12-1.14
		c-1.47-0.63-2.46-0.88-4.03-1.55c-2.01-0.86-1.89-1.28-1.32-2.6C177.3,538.37,178.07,538.06,178.97,537.45z"/>
	<path d="M216.61,522.42c-1.22-1.07-2.7-2.22-4.43-2.77c-2.38-0.77-5.54-0.71-7.68,1.07c-0.37,0.27-1.12,1.21-1.34,1.37
		c-0.69,0.57-1.21,1.86-1.62,2.79c-1.25,3.02-1.61,4.65-2.05,6.19c-0.42,1.49-1,2.43-1.01,3.32c0.01,0.84-0.73,2.63-1.08,3.36
		c-1.06,2.24-1.18,3.66-1.93,6.01c-0.62,1.93-1.29,4.02-0.9,5.94c0.2,1.13,0.91,3.1,1.94,3.54c1.91,0.84,1.49,1.99,4.28,2.89
		c2.13,0.68,5.69,0.59,7.19-0.61c2.12-1.73,2.22-2.38,2.48-2.85c0.61-1.21,1.07-1.4,2.03-4.4c1.32-4.29,1.33-4.85,1.48-5.31
		c0.23-0.71,0.51-1.24,0.84-1.92c0.31-0.63,1.14-3.9,1.47-4.58c0.33-0.68,0.83-2.6,1.28-3.97
		C218.68,529.04,219.58,525.01,216.61,522.42z M212.18,529.93c-0.6,2.05-1.48,3.57-1.83,5.7c-0.21,1.34-0.72,2.58-1.18,3.83
		c-1.23,3.31-1.63,5.77-2.95,8.99c-1.02,2.48-2.18,3.12-3.95,2.55s-2.12-1.75-1.73-4.37c0.24-1.61,1.05-2.92,1.62-5.04
		c0.5-1.92,1.48-3.74,1.73-5.4c0.14-0.8,0.62-1.6,0.79-2.44c0.25-1.49,1.04-3.6,1.82-5.65c0.92-2.51,2.8-2.97,3.97-2.6
		C212.24,526.07,212.95,527.37,212.18,529.93z"/>
	<path d="M234.61,526.07c-1.65-0.43-2.28-0.33-2.77,0.48c-0.77,1.24-1.28,1.93-3.1,1.95c-0.83,0-1.86-0.05-2.9-0.27
		c-1.52-0.29-2.26,0.01-2.45,0.74c-0.2,0.78-0.58,0.95-0.69,1.97c-0.14,1.18,1.1,1.28,2.33,1.61c3.25,0.85,3.84,1.12,3.59,2.49
		c-0.08,0.31-0.2,1.16-0.28,1.47c-0.31,1.19-0.6,2.49-0.93,3.74c-0.11,0.41-0.26,0.76-0.41,1.33c-0.87,2.87-1.72,5.68-2.51,8.68
		c-0.31,1.19-0.33,2.29-0.61,3.38c-0.14,0.52-1.23,4.04-1.83,6.32c-0.27,1.03,0.07,1.62,1.2,1.92c3.04,0.8,3.59,0.61,3.91-0.63
		c0.12-0.46,0.11-0.85,0.25-1.37c0.14-0.52,0.76-1.4,0.99-2.28l0.65-2.48c0.48-1.81,0.93-3.74,1.43-5.65
		c0.68-2.58,1.57-5.33,2.26-7.97c0.49-1.86,0.75-3.28,1.24-5.15c0.44-1.65,0.91-3.02,1.29-4.47c0.19-0.72-0.08-1.18,0.07-1.75
		c0.18-0.67,0.71-1.25,0.88-1.87C236.65,526.71,236.26,526.5,234.61,526.07z"/>
	<path d="M249.73,528.54c-2.73-0.46-3.33,0.52-5.11,0.82c-2.78,0.46-4.41,3.7-5.06,5.98c-0.29,1.09-0.59,1.91-0.63,2.77
		c-0.03,1.13-0.26,1.85-0.5,3c-0.98,4.55-0.57,10.47,4.48,11.32c3.68,0.62,4.68-1.17,5.63-1.01c0.37,0.06,0.33,0.92,0.35,1.47
		c0.05,1.63-0.67,3.35-0.86,4.46c-0.42,2.48-1.78,4.15-4.14,3.75c-0.74-0.12-1.49-0.14-1.94-0.71c-0.35-0.49-0.68-1.42-0.57-2.37
		c0.24-1.75-0.32-2.6-1.32-2.77c-0.58-0.1-0.89,0.18-1.37,0.1c-1.58-0.27-2.07,0.41-2.25,1.52c-0.39,2.32-0.12,3.29,0.68,4.94
		c0.37,0.71,0.6,1.56,1.56,2.32c0.61,0.54,2.31,1.69,5.1,2.16c0.89,0.15,1.8,0.25,2.75,0.03c2.29-0.43,3.46-0.99,4.83-2.98
		c0.57-0.83,1.59-1.74,2.24-4.34c0.32-1.25,0.6-4.23,1.15-6.2c0.26-0.93,0.09-1.83,0.84-5.01c0.37-1.56,0.28-3.26,0.44-4.21
		c0.23-1.37,0.46-1.77,0.7-3.19c0.05-0.32,0.14-1.82,0.22-4.19C256.84,532.87,254.68,529.37,249.73,528.54z M251.17,539.62
		c-0.42,2.48-0.76,4.53-1.26,6.51c-0.33,1.3-1.98,2.11-3.45,1.86c-1.68-0.28-2.7-1.32-2.74-3.01c-0.03-2.72,0.84-5.33,1.3-8.07
		c0.28-1.69,1.38-3.07,3.75-2.68C251.83,534.74,251.6,537.03,251.17,539.62z"/>
	<path d="M285.14,539.18c-6.37-1.07-10.78,3.31-11.88,9.09c-0.15,0.41-0.23,0.88-0.21,1.42c-0.05,0.55,0.01,1.03,0.15,1.45
		c0.81,5.33,4.63,9.9,10.56,9.85c5.45-0.05,9.83-4.66,10.25-9.89C294.46,545.73,290.62,540.11,285.14,539.18z M286.8,551
		c-0.23,1.4-1.51,2.67-3.03,2.76c-2.36,0.14-3.4-2.16-3.5-4.08C280.8,544.04,287.57,546.39,286.8,551z"/>
	<path d="M327.23,560.44c-1.28,0.07-2.47,0.44-3.81,0.46c-1.29,0.01-2.11,0.29-3.19,0.27c-1.02-0.02-1.17-0.27-1.46-1.26
		c-0.21-0.73-0.28-0.88-0.34-1.36c-0.11-0.8,0.01-1.51-0.11-2.36c-0.37-2.75-0.92-5.16-1.07-7.51c-0.18-2.89-0.77-5.67-1.1-8.54
		c-0.27-2.01-0.36-2.27-0.45-2.91c-0.21-1.53-0.19-2.62-0.56-5.32c-0.24-1.75-0.98-2.46-2.18-2.19c-0.73,0.15-1.46-0.07-2.2,0.03
		c-1.16,0.16-1.54,0.91-1.41,1.92c0.23,1.69,0.69,3.14,0.78,4.59c0.23,3.31,0.91,6.3,1.17,9.39c0.23,2.88,0.97,5.96,1.15,8.91
		c0.05,1.13,0.2,2.67,0.5,3.71c0.08,0.58,0.31,1.09,0.39,1.67c0.17,1.22,0.16,2.41,0.34,3.68c0.13,0.95-0.1,1.63,0.49,2.41
		c0.26,0.34,0.79,1.03,1.95,0.87c3.9-0.58,3.82-0.79,5.84-0.95c2.07-0.17,3.45-0.36,5.03-0.58c1.48-0.2,1.83-0.79,1.79-1.86
		c-0.03-0.59-0.21-1.54-0.29-2.12C328.37,560.5,327.77,560.42,327.23,560.44z"/>
	<path d="M339.76,552.19c-0.37-1.78-0.84-3.26-1.17-4.83c-0.27-1.31-0.43-3.62-1.07-6.71c-0.37-1.78-0.98-3.4-1.37-5.28
		c-0.34-1.62-0.48-3.61-0.87-5.5c-0.47-2.25-1.03-3.66-1.87-3.49c-0.94,0.19-1.03-0.22-1.97-0.03c-1.2,0.25-2.18,1.05-1.97,2.32
		c0.37,2.05,0.73,4.81,1.43,7.13c0.85,2.77,1.08,5.73,1.7,8.71c0.14,0.68,1.14,4.18,1.42,5.55c0.95,4.55,1.77,8.8,2.34,11.52
		c0.41,1.99,1.32,1.91,2.17,1.79c1-0.15,1.43-0.46,1.89-0.61c1.07-0.33,1.34-0.88,1.21-1.78
		C341.35,559.07,339.88,552.77,339.76,552.19z"/>
	<path d="M358.52,537.93c-0.39-0.78-0.92-0.91-1.59-0.72c-0.62,0.17-1,0.56-1.6,0.62c-0.75,0.1-1.66,0.41-2.27,0.59
		c-1.23,0.35-1.9,0.53-2.42-0.93c-0.59-1.5-0.9-2.41-1.12-3.57c-0.36-2.06-0.95-2.79-1.17-4.17c-0.19-1.28-0.36-2.06,0.6-2.39
		c1.56-0.55,2.91-0.88,4.5-1.32c0.62-0.17,1.75-0.66,2.38-0.78c0.62-0.17,1.03-0.85,0.85-1.52l-0.52-1.85
		c-0.46-1.65-2.13-1.45-2.73-1.23c-2.84,1.13-3.9,1.1-5.69,1.61c-0.87,0.25-4.57,1.46-4.93,1.56c-1.03,0.29-1.38,1.39-1.13,2.26
		c0.56,2.18,0.96,4.39,2.18,7.72c1.18,3.22,1.36,5.22,1.85,6.75c0.7,2.08,0.95,3.56,1.41,5.21c0.25,0.87,0.6,1.16,0.71,1.52
		c0.16,0.57-0.08,0.69,0.51,2.8c0.3,1.08,0.89,2.19,1.19,3.83c0.3,1.64,1.03,3.26,1.45,4.76c0.32,1.13,1.46,1.25,2.27,1.19
		c0.59-0.05,1.07-0.52,1.69-0.7c1.18-0.33,1.5-0.76,1.12-2.31c-0.28-1.2-0.51-2.19-0.94-3.34c-0.23-0.6-0.56-0.4-0.66-0.76
		c-0.28-0.98,0.31-0.48-0.53-3.46l-0.78-2.78c-0.3-1.08-0.69-2.25,0.35-2.88c0.24-0.12,1.02-0.51,3.38-1.17
		c2.26-0.64,2.53-1.05,2.46-1.69C359.21,539.79,358.94,538.81,358.52,537.93z"/>
	<path d="M384.3,544.46c-0.88,0.39-1.93,0.62-4.12,1.46c-1.44,0.55-2.76,1.28-3.65-0.44c-0.24-0.48-0.88-1.72-1.53-4.16
		c-0.3-1.09-0.83-2.32-1.4-3.81c-0.5-1.3,0.45-1.66,3.19-2.7c3.04-1.16,3.23-1.4,2.7-2.8c-0.21-0.55-0.09-1.28-0.33-1.76
		c-0.46-0.91-1.11-1.12-2.06-0.76l-3.93,1.5c-1.1,0.42-1.95,0.57-2.48-0.83l-0.5-1.3c-0.57-1.5-1.15-2.71-1.78-4.36
		c-1.07-2.8-0.8-3.3,1.54-4.19l4.73-1.8c1.05-0.4,2.17-0.88,1.52-2.58c-0.72-1.9-1.28-2.6-2.95-2.19c-2.19,0.55-3.68,1.4-5.78,2.2
		c-0.35,0.13-2.5,0.78-2.99,0.97c-2.54,0.97-3.84,2.04-3.06,4.08c0.51,1.35,1.45,4.25,1.96,5.6c0.51,1.35,1.15,2.42,1.72,3.92
		c0.69,1.8,1.2,5.55,4.24,11.71c1.52,3.08,2.14,6.22,3.42,8.82c0.74,1.49,1.6,2.25,2.94,1.74c0.3-0.11,1.13-0.49,1.42-0.6
		c1.15-0.44,1.86-0.65,2.98-1.02c2.16-0.77,4.43-1.4,6.47-2.47c1.9-1.01,1.18-2.28,0.94-2.93
		C386.94,544.2,386.44,543.47,384.3,544.46z"/>
	<path d="M409.23,530.86c-0.2-0.5-0.35-1.02-0.7-1.45c-0.37-0.47-2.09-3.31-3.74-6.91c-1.67-3.65-4.25-7.67-5.08-9.59
		c-0.6-1.49-0.85-1.85-1.02-2.18c-1.02-1.94-2.08-3.86-3.05-5.83c-0.47-0.9-1.14-1.15-2.16-0.68c-0.69,0.3-1.4,0.55-2.01,0.99
		c-0.8,0.54-1.14,1.38-0.7,2.23c0.52,0.99,1,2.25,1.67,3.53c0.12,0.24,1.53,2.58,1.7,3.03c0.85,2.21,2.37,4.19,3.44,6.46
		c1.42,2.94,2.67,5,3.24,6.09c0.72,1.37,0.92,1.99,1.29,2.58c1.82,2.91,3.18,6.42,4.36,8.22c0.71,1.13,1.51,1.38,2.4,0.8
		c0.49-0.32,1.14-0.47,1.65-0.74c1.18-0.62,1.29-1.34,0.81-2.47C410.71,533.35,409.71,532.12,409.23,530.86z"/>
	<path d="M428.09,514.3c-0.65-0.35-2.29-1.47-2.57-1.93c-1.04-1.68-3.23-1.58-4.44-1.9c-1.06-0.29-2.2-1.03-3.01-1.22
		c-3.39-0.92-6.43-0.36-8.96-4.44c-0.84-1.36-0.69-1.71-0.78-2.47c-0.11-0.88-0.1-1.57,0.94-2.22c2.76-1.71,4.28-0.27,5.66,1.96
		c0.93,1.5,2.3,0.78,2.71,0.33c0.06-0.1,0.9-0.87,1.3-1.24c0.79-0.74,0.63-1.21,0.15-1.98c-0.7-1.14-1.73-1.88-2.62-2.71
		c-0.68-0.59-1.26-1.23-2.09-1.66c-2.34-1.25-5.79,0.06-7.74,1.27c-1.63,1.01-2.18,1.85-2.73,3.08c-0.49,1.12-1.12,1.83-0.98,3.68
		c0.21,2.26,1.37,4.43,2.44,6.16c0.96,1.54,4.05,4.21,7.18,4.92c1.29,0.27,2.43,0.38,3.67,0.87c0.75,0.29,2.23,0.26,3.16,0.55
		c2.36,0.67,4.46,1.83,5.92,4.19c1.13,1.82,1.05,3.62-0.8,4.77c-1.72,1.07-3.73,0.36-5.16-1.64c-0.44-0.61-0.82-1.32-1.21-1.95
		c-0.82-1.32-2.04-0.56-2.49-0.28c-1.4,0.87-2.03,1.38-0.51,3.83c0.31,0.5,0.8,0.89,1.11,1.39c0.37,0.59,0.58,1.15,0.91,1.57
		c1.12,1.51,3.27,2.44,5.31,2.5c0.46,0.03,2.79-0.16,3.92-0.86l1.5-0.93c4.85-3,3.75-8.42,1.55-11.96
		C429.13,515.47,428.65,514.58,428.09,514.3z"/>
	<path d="M459.19,493.72c-1.74-1.33-3.15-2.94-5.22-4.35c-0.21-0.17-1.14-1.2-1.7-1.71c-0.64-0.51-1.37-0.81-1.95-1.51
		c-0.34-0.41-1.66-1.74-2.68-2.64c-1.55-1.36-3-2.51-4.72-4c-0.21-0.17-0.97-1-1.18-1.17s-1.76-1.45-1.94-1.58
		c-1.2-1.02-2.33-2.72-3.64-1.63c-0.61,0.51-0.74,1.11-1.36,1.62c-0.66,0.55-1.8,1.01-2.53,1.62c-0.7,0.58-0.87,1.21-0.55,1.92
		c1.6,3.26,3.29,5.95,5.09,8.77c1.03,1.65,1.64,3.22,2.84,4.66c1.06,1.27,1.4,2.93,2.43,4.17c0.31,0.37,1.7,3.04,3.06,5.17
		c0.43,0.68,0.94,1.38,1.37,2.06c0.5,0.77,0.92,1.94,1.54,2.68c0.07,0.08,1.12,1.92,1.32,2.17c0.65,0.78,1.16,1.4,2.12,0.88
		c0.64-0.32,1.13-0.73,1.62-1.14c2.5-2.08-3.13-4.84-1.81-7.25c0.14-0.25,0.27-0.51,1.95-1.9c1.27-1.06,1.45-1.42,1.86-1.76
		c1.11-0.92,1.72-0.18,2.53,0.54c0.53,0.47,2.65,2.1,3.1,2.56c0.32,0.29,0.94,0.47,1.6-0.08c1.11-0.92,1.67-1.25,2.12-1.62
		c0.57-0.48,0.76-1.33,0.24-1.8C463.48,497.38,461.11,495.19,459.19,493.72z M450.86,496.62c-2.17,1.81-2.54,2.11-3.6,0.84
		c-0.17-0.21-0.74-1.05-2.98-4.75c-0.83-1.33-1.38-2.33-2.39-3.78c-0.51-0.69-3.05-4-2.07-4.81c0.74-0.61,3.08,2.03,5.25,3.97
		c6.21,5.54,6.48,5.87,6.72,6.16C452.61,495.23,451.96,495.7,450.86,496.62z"/>
	<path d="M480.01,471.89c-1.6-1.49-2.74-2.47-3.55-3.16c-1.83-1.49-2.14-1.7-3.47-2.94c-1.76-1.64-1.81-1.9-2.43-2.48
		c-1.76-1.71-3.37-3.36-4.98-4.85c-2.07-1.93-3.94-3.45-5.12-4.54c-0.94-0.87-1.56-0.44-2.16-0.11c-0.66,0.4-0.91,0.97-1.38,1.48
		c-1.38,1.48,0.18,2.71,0.88,3.37c1.02,0.95,1.73,1.9,2.78,2.74c2.3,1.85,4.38,4.15,6.65,6.12c3.24,2.8,6.26,5.75,9.31,8.74
		c1.06,0.98,1.8,2.62,1.21,3.96c-0.56,1.3-1.96,2.03-0.66,3.53c0.59,0.7,1.21,1.05,1.67,1.34c1.01,0.64,1.7-0.1,2.31-0.76
		c1.38-1.48,2.33-3.21,2.45-5.07c0.07-1.02-0.38-2.03-0.72-3.15C482.25,474.35,481.26,473.06,480.01,471.89z"/>
	<path d="M497.48,453.15c-3.87-3.46-6.55-4.9-9.61-7.66c-2.3-2.09-5.04-3.71-7.42-5.79c-2.17-1.91-4.72-2.64-7.89-2.09
		c-1.6,0.3-2.84,1.35-3.83,2.61c-0.79,1-0.72,1.6-1.51,2.61c-2.41,3.05-1.3,7.25,2.68,10.4c1.51,1.19,3.12,2.26,4.63,3.45
		c0.55,0.43,1.07,1.05,4.64,3.87c3.31,2.62,3.91,2.81,4.49,3.28c0.46,0.37,0.75,0.86,1.21,1.23c0.59,0.46,1.92,1.45,3.15,2.22
		c3.54,2.25,8.03,0.44,10.24-2.36c1.22-1.55,2.35-3.84,2.19-5.88C500.23,456.82,498.88,454.39,497.48,453.15z M494.39,461.71
		c-1.85,2.34-4.18,0.98-6.36-0.74c-0.92-0.73-1.74-0.9-2.8-1.8c-0.55-0.43-0.67-1.14-2.93-2.93c-2.22-1.76-2.83-2.03-3.08-2.23
		c-2.06-1.62-4.1-3.17-6.07-4.73c-1.64-1.29-2.63-3.57-1.24-5.33c1.55-1.97,4.02-1.04,5.7,0.29c0.55,0.43,2.74,2.23,6.05,4.85
		c0.92,0.73,1.83,0.96,2.63,2.28c0.24,0.39,0.61,0.69,0.99,0.99c2.01,1.59,4.12,2.98,6.13,4.57
		C494.88,458.09,495.75,460,494.39,461.71z"/>
	<path d="M514.24,435.17c-0.27-0.17-0.67-0.24-0.94-0.42c-1.17-0.75-0.14-1.17-2.07-3.1c-0.45-0.48-3.76-2.55-4.44-2.98
		c-0.81-0.52-2.3-1.36-3.11-1.88c-0.49-0.32-1.02-0.78-1.79-1.28c-1.08-0.69-2.13-1.24-3.11-1.88c-1.44-0.93-2.97-1.91-4.4-2.83
		c-0.72-0.46-1.42-0.85-2.1-1.29c-1.17-0.75-2.78-2.1-4.68-3.2c-0.52-0.27-1.33-0.1-1.61,0.42c-0.37,0.77-1.09,1.39-1.41,2.2
		c-0.43,1.06,0.48,1.83,1.06,2.2c1.26,0.81,2.53,1.69,3.66,2.42c0.72,0.46,0.92,0.65,1.77,1.2c1.98,1.27,4.18,2.5,6.15,3.77
		c0.85,0.55,1.65,1.19,2.59,1.8c2.16,1.39,5.21,2.97,7.5,4.44c1.93,1.24,4.27,3.64,3.12,5.43c-1.67,2.6-3.08,2.52-7.57-0.38
		c-0.54-0.35-1.24-0.35-1.77-0.7c-0.31-0.2-0.5-0.7-1.71-1.48c-0.63-0.4-2.26-1.52-3.7-2.45c-1.21-0.78-2.88-1.85-4.09-2.63
		c-1.12-0.72-2.45-1.32-3.62-2.08c-0.58-0.38-1.08-0.89-1.62-1.23c-1.03-0.67-2.07-1.52-3.15-2.22c-1.66-1.07-2.78-1.6-3.39-0.66
		c-0.29,0.45-0.68,0.76-0.97,1.21c-0.72,1.12-1.07,2.16,0.41,3.12c1.53,0.98,3.3,2.38,5.19,3.59c2.79,1.79,5.49,3.22,6.84,4.09
		c3.06,1.97,6.55,4.53,9.56,6.47c2.02,1.3,4.66,2.93,6.96,2.52c3.04-0.58,4.44-1.77,5.71-3.74c1.01-1.57,1.61-2.89,1.91-4.85
		C515.53,437.9,515.14,435.75,514.24,435.17z"/>
	<path d="M528.34,410.99l-1.43-0.73c-1.71-0.88-2.97-1.47-4.83-2.42c-1.52-0.78-4.33-1.86-6.15-1.72c-1.43,0.1-1.94,0.62-2.51,0.33
		c-0.57-0.29-0.85-1.39-1.27-2.09c-0.85-1.51-2.08-2.51-3.41-3.55c-1.42-1.09-3.09-1.59-4.71-2.42c-2.47-1.27-5.99-0.86-8.11,0.93
		c-0.63,0.52-1.91,2.2-2.13,2.74c-0.85,1.9-2.04,3.62-2.77,5.4c-0.93,2.28-0.29,3.14,0.99,3.8c1.62,0.83,3.16,1.68,4.82,2.66
		c2.09,1.19,4.3,2.03,6.11,3.08c0.78,0.46,1.52,0.9,2.28,1.29c2.04,1.05,4.61,2.25,4.8,2.35c0.81,0.41,1.59,1,2.49,1.46
		c0.48,0.24,0.97,0.44,1.5,0.71c2.52,1.18,4.89,2.75,7.46,3.83c1.05,0.42,1.99-0.36,2.55-1.45c1-1.94,1.15-2.94-0.18-3.63
		c-2.09-1.07-2.95-1.51-4.49-2.13c-2.28-0.93-4.21-2.34-6.44-3.49c-1.05-0.54-0.73-1.27-0.12-2.46c1.87-3.65,5.51-1.72,12.88,2.06
		c1.24,0.63,2.64,1.3,3.69-0.74c0.32-0.62,1.46-2.61,0.99-3.21C529.85,410.99,528.91,411.29,528.34,410.99z M509.06,411.46
		c-0.75,1.47-1.52,1.67-2.54,1.21c-1.47-0.64-2.8-1.56-4.33-2.1c-1.43-0.5-2.59-1.39-3.85-2.1c-1.57-0.93-1.49-1.54-0.27-3.92
		c1.34-2.61,4.86-1.04,6.38-0.26c0.33,0.17,0.97,0.8,1.16,0.9c2.09,1.31,3.45,1.71,3.71,4.48
		C509.38,410.12,509.28,411.03,509.06,411.46z"/>
	<path d="M539.55,385.84c-0.5-0.19-2.07-0.58-6.32-2.47c-3.43-1.51-7.6-2.57-12.14-4.75c-1.98-0.95-3.36-1.09-7.12-2.79
		c-0.68-0.32-1.75-0.51-2.5-0.81c-1.19-0.47-2.17-1.19-3.32-1.64c-1.24-0.49-2.02,0.18-2.3,1.04c-0.18,0.62-0.64,0.9-0.72,1.84
		c-0.07,0.77-0.14,1.66,1.81,2.26c2.25,0.71,3.53,1.55,6.55,2.62c2.01,0.73,4.21,1.71,7.13,2.9c0.25,0.1,0.49,0.36,0.33,0.76
		c-0.33,0.84-1.85,0.19-2.9,0.07c-0.94-0.08-2.1,0.09-2.96-0.07c-1.22-0.25-2.76-0.28-5.1-0.62c-1.9-0.28-3.79-0.28-5.72-0.64
		c-1.29-0.22-2.13,0.31-2.44,1.1c-0.23,0.6-0.9,2.45-1.08,2.9c-0.29,0.74-0.24,2.08,1.15,2.63c1.29,0.51,3.41,1.56,5.35,2.32
		c0.65,0.25,3.28,1.45,3.82,1.67c1,0.39,1.9,0.86,2.9,1.25c2.79,1.09,5.2,1.81,7.59,2.74c1,0.39,1.85,0.84,3.05,1.31
		c4.68,1.83,7.34,2.81,8.6,3.25c1.16,0.4,1.75-0.06,2.23-1.3c0.31-0.79,0.03-1.25,0.21-1.86c0.16-0.56-0.18-1.16-0.97-1.47
		c-2.49-0.97-5.05-2.2-8.18-3.43c-0.95-0.37-1.73-0.85-2.63-1.2c-2.09-0.82-3.67-1.04-6.66-2.2c-0.65-0.25-1.4-0.83-1.26-1.18
		c0.17-0.45,0.8-0.43,1.07-0.38c1.51,0.25,2.16,0.5,4.3,0.6c0.84,0.04,1.6,0.17,2.42,0.26c1.75,0.23,3.49,0.17,5.34,0.43
		c3.67,0.29,5.06,1.01,8.04,0.86c2.62-0.23,2.78-1.83,3.5-3.66C541.1,387.02,540.55,386.23,539.55,385.84z"/>
	<path d="M546.51,360.84c-1.59-0.45-2.47-0.48-2.96,1.82c-0.21,0.94-0.65,1.92-1.29,4.18c-0.42,1.49-0.62,2.98-2.53,2.66
		c-0.53-0.09-1.91-0.32-4.25-1.26c-1.05-0.41-2.35-0.72-3.89-1.16c-1.34-0.38-1.06-1.35-0.26-4.17c0.88-3.13,0.8-3.43-0.64-3.83
		c-0.57-0.16-1.08-0.69-1.61-0.79c-1.01-0.17-1.56,0.22-1.84,1.2l-1.15,4.05c-0.32,1.13-0.71,1.9-2.14,1.5l-1.34-0.38
		c-1.54-0.44-2.86-0.7-4.55-1.18c-2.88-0.81-3.12-1.33-2.44-3.74l1.38-4.87c0.3-1.08,0.59-2.27-1.16-2.76
		c-1.95-0.55-2.85-0.53-3.52,1.05c-0.87,2.08-1.07,3.79-1.68,5.95c-0.1,0.36-0.86,2.47-1.01,2.98c-0.74,2.61-0.66,4.3,1.45,4.89
		c1.39,0.39,4.28,1.38,5.66,1.77c1.39,0.39,2.63,0.52,4.17,0.96c1.85,0.52,5.17,2.35,11.92,3.59c3.38,0.62,6.27,1.99,9.12,2.52
		c1.64,0.3,2.76,0.06,3.15-1.32c0.09-0.31,0.28-1.19,0.37-1.5c0.33-1.18,0.59-1.88,0.96-3c0.68-2.19,1.52-4.39,1.89-6.67
		C548.63,361.21,547.18,361.02,546.51,360.84z"/>
	<path d="M550.63,341.51c-1.04-0.25-2.07-0.54-3.15-0.58c-1.08-0.04-2.77-0.62-4.34-0.9c-2.21-0.4-3.45-0.74-4.89-1.49
		c-4.03-2.04-7.83-4.41-11.97-6.15c-1.92-0.79-3.36-1.81-5.13-2.56c-0.6-0.27-1.21-0.49-1.8-0.87c-1.27-0.77-1.89-0.07-1.96,0.34
		c-0.17,0.94-0.39,1.55-0.55,2.39c-0.34,1.89,1.27,1.69,2.35,2.32c0.44,0.24,1.09,0.58,1.59,0.83c2.18,1.16,3.62,1.58,5.42,2.45
		c1.45,0.7,2.42,1.31,3.62,1.91c0.3,0.16,0.89,0.49,0.8,0.96c-0.11,0.63-1.09,0.88-1.9,0.9c-2.94,0.06-5.78,0.4-8.74,0.84
		c-1.39,0.18-2.53,0.19-3.98,0.35c-0.61,0.05-1.24,0.53-1.26,1.23c-0.02,0.7-0.52,1.37-0.65,2.05c-0.35,1.89,1.34,1.87,2.61,1.78
		c4.19-0.32,6.38-0.73,8.67-1.07c2.18-0.31,4.45-0.59,6.71-0.72c2.46-0.09,4.92-1.05,8.02-0.48c0.47,0.09,2.7,0.66,5,0.86
		c1.12,0.1,2.17,0.29,3.26,0.6c0.87,0.27,1.56,0.39,2.26,0.41c0.86,0.05,1.5-0.75,1.68-1.75
		C552.74,342.77,552.82,342.02,550.63,341.51z"/>
	<path d="M566.65,230.4c-0.56-2.48-2.56-4.65-5.45-4l-68.41,15.1c-1.41-5.53-3.03-11-4.86-16.41l51.34-15.99
		c4.36-1.33,1.89-8.85-2.42-7.35l-51,17.48c-10.65-28.79-27.3-55.43-49.3-77.63l38.78-37.45c3.29-3.15-2.23-8.82-5.41-5.54
		l-37.82,38.65c-3.62-3.45-7.37-6.78-11.26-9.99c-0.76-0.62-1.54-1.21-2.31-1.82l46.67-56.59c1.87-2.26,0.92-5.1-1.1-6.66
		c-2.01-1.56-4.94-1.94-6.75,0.4l-45.14,57.99c-4.68-3.47-9.49-6.72-14.4-9.76l29.72-45.69c2.51-3.81-4.19-8.02-6.55-4.11
		l-28.46,46.58C367,92.79,338.82,83.5,309.96,79.9l7.31-53.85c0.64-4.51-7.21-5.55-7.68-1l-5.79,54.17
		c-5.44-0.53-10.9-0.85-16.36-0.97c0-0.08,0.02-0.16,0.02-0.24l1.14-73.48c0.05-2.93-2.47-4.56-5.01-4.52
		c-2.55,0.04-5.07,1.57-5.03,4.53l0.94,73.49c0,0.07,0.02,0.13,0.02,0.2c-6.36,0.09-12.72,0.45-19.06,1.09l-4.95-53.99
		c-0.39-4.54-8.26-3.7-7.69,0.83l6.47,53.88c-28.78,3.74-56.98,13.2-82.61,28.64c-1.02,0.62-2.03,1.24-3.04,1.87l-28.17-46.1
		c-2.36-3.91-9.06,0.3-6.55,4.11l29.51,45.37c-4.82,3.21-9.48,6.61-13.98,10.17c-0.11-0.18-0.22-0.37-0.36-0.55l-45.14-58
		c-1.81-2.34-4.74-1.96-6.75-0.4c-2.01,1.56-2.97,4.4-1.1,6.66l46.76,56.7c0.18,0.21,0.36,0.38,0.54,0.55
		c-4.59,3.92-9,8.01-13.23,12.27l-37.54-38.36c-3.18-3.29-8.7,2.39-5.41,5.54l38.63,37.3c-19.92,21.3-35.33,46.39-45.43,73.5
		l-50.98-17.47c-4.31-1.5-6.78,6.01-2.42,7.35l51.32,15.99c-1.86,5.45-3.51,10.98-4.94,16.57L5.73,226.77
		c-2.89-0.64-4.9,1.52-5.45,4c-0.56,2.48,0.52,5.28,3.41,5.83l67.87,12.98c-1.32,6.08-2.37,12.21-3.16,18.4l-53.12-5.55
		c-4.55-0.5-5.17,7.39-0.63,7.72l53.03,4.03c-0.66,6.62-1.01,13.3-1.05,19.99c-0.01,0.16-0.01,0.32-0.01,0.48
		c-0.05,14.09,1.27,28.28,4.08,42.38c17.5,87.89,90.85,158.09,179.49,171.48c10.91,1.65,21.9,2.47,32.93,2.52
		c90.1-0.42,172.24-57.58,203.46-142.23c0.32-0.86,0.62-1.72,0.92-2.58c0.69-0.74,1.01-1.77,0.97-2.79
		c7.52-22.24,11.13-45.29,11.09-68.22c0.1-0.53,0.09-1.08-0.01-1.61c-0.06-6.6-0.42-13.19-1.07-19.74l53.8-4.08
		c4.55-0.32,3.92-8.21-0.63-7.72l-53.88,5.63c-0.79-6.16-1.84-12.27-3.15-18.34l68.62-13.13
		C566.13,235.68,567.21,232.88,566.65,230.4z M149.8,132.99c67.53-56.07,165.99-63.37,241.13-18.1
		c61.96,37.33,99.97,105.05,101.51,175.93c-18.06,0-36.12,0-54.18,0c-1.86-62.88-41.83-119.69-101.02-141.92
		c-60.97-22.9-131.87-3.78-173.39,46.27c-22.4,27.01-34.84,60.68-35.85,95.65c-1.86,0-3.71,0-5.57,0c-16.14,0-32.29,0-48.43,0
		C75.33,230.87,102.28,172.44,149.8,132.99z M490.26,325.42c-27.1,0-54.2,0-81.3,0c-44.38,0-88.75,0-133.13,0c-8.5,0-17,0-25.5,0
		c4.91-6.84,16.98-9.71,24.43-11.91c12.54-3.71,25.45-6.2,38.34-8.33c19.73-3.25,39.67-5.65,59.61-7.13c23.7,0,47.41,0,71.11,0
		c16.21,0,32.43,0,48.64,0C492.35,307.15,491.62,316.3,490.26,325.42z M481.95,360.02c-45.07,0-90.14,0-135.21,0
		c-6.49,0-12.98,0-19.46,0c-0.24,0-0.45,0.03-0.67,0.07c-6.97-3.62-14.1-6.84-21.3-9.62c-14.32-5.53-29.21-8.97-43.79-13.66
		c-2.49-0.8-7.06-2.07-9.92-4.16c25.55,0,51.11,0,76.66,0c44.38,0,88.75,0,133.13,0c9.22,0,18.44,0,27.66,0
		c-0.21,1.14-0.43,2.28-0.66,3.42C486.73,344.23,484.56,352.22,481.95,360.02z M466.72,394.62c-30.6,0-61.2,0-91.8,0
		c-10.77-10.4-22.83-19.58-35.62-27.38c42.08,0,84.16,0,126.25,0c4.61,0,9.23,0,13.84,0C475.83,376.7,471.58,385.84,466.72,394.62z
		 M442.74,429.26c-0.13-0.01-0.26-0.04-0.4-0.04c-13.19,0-26.38,0-39.56,0c-0.24-0.39-0.47-0.78-0.7-1.15
		c-5.76-9.34-12.54-18.1-20.08-26.22c26.85,0,53.7,0,80.55,0C456.68,411.51,450.04,420.67,442.74,429.26z M103.47,401.84
		c37.51,0,75.02,0,112.53,0c2.73,5.26,4.22,10.95,3.5,17c-0.45,3.71-1.64,7.17-3.35,10.38c-30.97,0-61.93,0-92.9,0
		C115.96,420.68,109.33,411.53,103.47,401.84z M99.31,394.62c-4.8-8.73-9-17.87-12.52-27.38c30.35,0,60.7,0,91.05,0
		c7.01,3.77,13.73,8.01,19.8,13.29c4.66,4.06,9.65,8.79,13.71,14.09C174,394.62,136.66,394.62,99.31,394.62z M84.25,360.02
		c-2.97-9.02-5.28-18.17-6.95-27.38c18.18,0,36.36,0,54.54,0c0.87,3.65,3,7.53,6.72,11.63c6.65,7.33,15.9,11.61,24.71,15.74
		C136.93,360.02,110.59,360.02,84.25,360.02z M131.76,325.42c-18.41,0-36.82,0-55.23,0c-0.14,0-0.27,0.03-0.41,0.04
		c-1.33-9.12-2.04-18.28-2.15-27.42c31.23,0,62.46,0,93.69,0C151.44,304.03,134.48,313.2,131.76,325.42z M376.83,290.82
		c-0.49-10.21-2.63-20.12-6.17-29.41c9.52,1.83,19.14,5.06,28.51,9.76c9.91,4.96,19.51,11.56,28.42,19.64
		C410.67,290.82,393.75,290.82,376.83,290.82z M367.42,253.87c-9.1-18.83-24.26-34.48-43.55-43.9c16.81-10.7,38.07-17.23,61.49-17.8
		C384.78,215.68,378.2,237.02,367.42,253.87z M372.36,256.22c11.33-16.65,18.61-37.93,19.98-61.59c1.48,1.61,2.93,3.24,4.35,4.92
		c20.07,23.89,31.71,53.65,34,84.57C412.63,268.8,392.21,259.44,372.36,256.22z M321.3,205.15c-3.21-19.79-12.54-40.15-27.78-58.17
		c32.81,2.46,64.48,15.76,89.27,38.19C359.18,186.56,337.93,193.84,321.3,205.15z M283.69,146.57c0.13,0.21,0.28,0.41,0.47,0.6
		c9.25,9.67,16.71,20.24,22.18,31.17c4.65,9.27,7.87,18.79,9.7,28.22c-0.14-0.05-0.27-0.11-0.41-0.16
		c-21.32-7.99-44.69-7.41-65.45,0.36c1.83-9.5,5.06-19.08,9.75-28.42c5.47-10.93,12.92-21.5,22.18-31.17
		c0.19-0.2,0.35-0.41,0.48-0.62C282.95,146.56,283.32,146.57,283.69,146.57z M189.44,290.82c-16.92,0-33.84,0-50.77,0
		c8.91-8.08,18.51-14.68,28.42-19.64c9.31-4.67,18.87-7.9,28.35-9.73C191.94,270.8,189.91,280.69,189.44,290.82z M198.74,253.7
		c-10.72-16.82-17.26-38.1-17.83-61.54c23.46,0.57,44.75,7.12,61.58,17.86c-11.92,5.7-22.69,13.88-31.33,24.29
		C206.18,240.31,202.05,246.82,198.74,253.7z M244.96,205.15c-16.61-11.3-37.82-18.57-61.41-19.97
		c14.03-12.95,30.63-23.28,49.2-29.98c13.08-4.72,26.57-7.44,40.07-8.32C257.53,164.93,248.18,185.33,244.96,205.15z M173.94,194.93
		c1.42,23.54,8.68,44.71,19.96,61.29c-19.85,3.22-40.27,12.59-58.33,27.91C138.13,250.68,151.99,219.27,173.94,194.93z
		 M253.45,213.03c33.89-12.37,72.73-1.87,95.95,25.67c12.4,14.71,19.26,33.04,20.2,52.12c-5.87,0-11.75,0-17.62,0
		c-51.77,0-103.55,0-155.32,0C198.45,256.23,220.53,225.04,253.45,213.03z M129.73,436.44c27.14,0,54.27,0,81.41,0
		c-2.21,2.56-4.71,4.9-7.33,7c-12.08,9.67-27.6,16.26-42.62,19.86c-0.24,0.06-0.45,0.14-0.66,0.23
		C149.43,455.52,139.1,446.45,129.73,436.44z M283.13,503.81c-41.42-0.19-81.24-12.86-114.82-34.91
		c27.2-7.72,62.76-26.98,58.15-59.1c-2.02-14.04-14.68-26.85-25.17-35.63c-6.28-5.26-13.12-9.56-20.25-13.4
		c-0.31-0.25-0.67-0.45-1.09-0.58c-3.62-1.92-7.32-3.74-11.05-5.5c-13.35-6.27-43.39-20.99-23.27-37.26
		c12.96-10.49,31.35-15.79,47.49-19.4c7.06,0,14.11,0,21.17,0c32.62,0,65.24,0,97.86,0c-10.26,1.66-20.48,3.61-30.56,6.13
		c-10.36,2.58-21.53,5.54-30.6,11.41c-5.65,3.65-11.36,9.79-8.53,17.03c3.13,8,14.58,10.46,21.83,12.58
		c16.75,4.91,33.53,9.36,49.49,16.58c22.67,10.26,42.51,24.84,59.91,42.58c12.47,12.71,25.71,27.83,30.42,45.48
		c0.95,3.54,1.58,7.33,1.14,11c-0.07,0.55-1.1,3.78-0.52,2.59c-0.2,0.41-0.3,0.81-0.35,1.21c-25.86,18.56-55.96,31.41-88.27,36.62
		C305.19,502.99,294.17,503.75,283.13,503.81z M412.91,458.13c0.08-7.22-2.78-15.01-6.13-21.69c9.85,0,19.71,0,29.56,0
		C429.08,444.24,421.25,451.49,412.91,458.13z"/>
	<path d="M100.95,263.8c10.38,3.12,22.96-1.83,27.18-12.11c4.57-11.15-2.13-23.04-12.47-27.87c-0.06-0.03-0.11-0.04-0.17-0.06
		c-0.21-0.12-0.44-0.22-0.7-0.31c-11.44-3.72-23.22,1.67-27.21,13.23C83.78,247.71,89.59,260.39,100.95,263.8z M112.58,230.34
		c5.42,2.72,9.93,7.69,9.84,14.12c-0.11,8.17-8.4,13.62-16.03,13.05C86.64,256.03,92.02,223.98,112.58,230.34z"/>
	<path d="M154.48,198.17c7.88-8.73,5.7-21.41-1.59-29.62c-0.19-0.28-0.41-0.55-0.71-0.8c-0.28-0.29-0.58-0.5-0.88-0.67
		c-8.76-6.64-20.37-6.6-28.46,1.54c-8.25,8.3-8.44,22.44,0.34,30.4C131.82,206.88,146.49,207.03,154.48,198.17z M147.08,172.86
		c4.59,4.77,7.12,12.09,3.66,18.32c-4.33,7.77-15.52,8.28-21.95,3.07C114.7,182.83,133.02,161.23,147.08,172.86z"/>
	<path d="M197.31,158.45c10.94-5.07,13.89-18.5,9.62-28.98c-0.01-0.02-0.02-0.03-0.02-0.04c-0.08-0.27-0.19-0.54-0.34-0.82
		c-5.45-9.77-16.77-14.2-27.25-9.55c-10.84,4.81-16.24,17.66-10.93,28.51C173.39,157.79,186.75,163.34,197.31,158.45z M200.24,132.1
		c2.22,5.96,2.2,13.04-2.84,17.67c-6.32,5.8-16.3,3.27-21.06-3.17C164.73,130.92,190.52,115.07,200.24,132.1z"/>
	<path d="M250.54,136.66c13.08,0.1,21.34-11.76,21.12-23.96c-0.01-0.33-0.05-0.63-0.13-0.91c0-0.02,0-0.04,0-0.05
		c-3.75-26.62-45.25-21.94-42.33,4.88C230.33,127.06,239.81,136.58,250.54,136.66z M249.55,100.61c8.05-0.59,13.54,4.9,14.88,12.3
		c0.06,8.77-6.04,18.4-16.1,16.27c-6.73-1.43-12.09-8.09-12.08-14.95C236.26,106.81,242.42,101.14,249.55,100.61z"/>
	<path d="M310.79,135.9c11.67,4.02,22.5-3.77,26.9-14.25c0.2-0.32,0.37-0.69,0.47-1.13c0.16-0.44,0.22-0.84,0.22-1.23
		c2.02-11.61-4.44-22.6-16.48-25.14c-11.14-2.34-22.47,4.49-25.04,15.67C294.45,120.32,300.48,132.36,310.79,135.9z M303.82,111.75
		c3.58-17.84,31.55-11.67,27.37,6.85c-2.64,7.17-9.83,12.96-17.73,10.62C306.45,127.16,302.45,118.6,303.82,111.75z"/>
	<path d="M366.15,156.74c9.5,7.92,23.16,4.61,30.75-4.17c0.1-0.12,0.17-0.24,0.26-0.36c0.1-0.12,0.21-0.23,0.31-0.37
		c14.92-21.82-17.53-46.73-33.87-25.87C356.59,134.9,357.2,149.28,366.15,156.74z M368.6,131.26c10.33-15.17,32.65,1.47,22.85,16.58
		c-4.83,5.33-12.66,8.6-19.38,4.28C365.3,147.78,364.24,137.67,368.6,131.26z"/>
	<path d="M439.81,203.53c0.34-0.1,0.69-0.25,1.05-0.49c0.38-0.2,0.67-0.44,0.93-0.7c8.76-6.64,11.99-18.15,6.05-28.08
		c-5.97-9.98-19.28-13.89-29.29-7.58c-9.25,5.84-13.41,18.49-8.62,28.48C415.42,206.6,429.29,208.44,439.81,203.53z M421.75,173.3
		c15-10.49,30.58,13.12,15.47,23.51c-6.81,3.55-16.5,3.24-20.6-4.31C413.08,185.99,415.94,177.35,421.75,173.3z"/>
	<path d="M437.22,247.51c1.05,12.75,13.52,20.01,25.43,18.7c0.04,0,0.07-0.02,0.11-0.02c0.27,0,0.56-0.04,0.85-0.11
		c12-2.83,19.27-14.37,15.99-26.52c-2.91-10.8-14.08-17.84-25.07-15.17C444.4,226.86,436.35,236.97,437.22,247.51z M453.06,232.6
		c18.33-9.19,28.73,21.47,8.9,26.45c-7.59,0.59-16.4-2.75-17.49-11.39C443.69,241.49,447.6,235.33,453.06,232.6z"/>
</g>
</svg>
